<svg width="38" height="38" viewBox="0 0 38 38" fill="none" xmlns="http://www.w3.org/2000/svg">
    <style>
        #shape { fill: #0F1821; }
        @media (prefers-color-scheme: dark) {
            #shape { fill: #F9FBFC; }
        }
    </style>
    <path id="shape" fill-rule="evenodd" clip-rule="evenodd" d="M23.6682 7L35.6682 19L23.6682 31L19 26.3318L14.3317 31L2.33173 19L14.3317 7L19 11.6682L23.6682 7ZM5.1239 19L14.3303 28.2064V28.2092L17.6032 24.9364L11.6682 19.0014L17.6032 13.0664L14.3303 9.79359L5.1239 19ZM23.5367 19L18.9986 14.4618L14.4604 19L18.9986 23.5382L23.5367 19ZM26.3275 18.9986L26.3289 19V18.9972L26.3275 18.9986ZM20.3939 13.065L26.3275 18.9986L20.3939 24.9321L23.6668 28.205L32.8732 18.9986L23.6668 9.79218L20.3939 13.065Z" fill="none"/>
</svg>