<svg width="122" height="48" viewBox="0 0 122 48" fill="none" xmlns="http://www.w3.org/2000/svg">
<path fill-rule="evenodd" clip-rule="evenodd" d="M36.1477 8.32985L51.8178 24L36.1477 39.6702L30.0517 33.5742L23.9557 39.6702L8.28554 24L23.9557 8.32985L30.0517 14.4258L36.1477 8.32985ZM11.9317 24L23.9538 36.0222V36.0258L28.2277 31.752L20.4775 24.0018L28.2277 16.2517L23.9538 11.9778L11.9317 24ZM35.976 24L30.0498 18.0738L24.1237 24L30.0498 29.9262L35.976 24ZM39.6203 23.9982L39.6221 24V23.9963L39.6203 23.9982ZM31.872 16.2498L39.6203 23.9982L31.872 31.7465L36.1458 36.0203L48.168 23.9982L36.1458 11.976L31.872 16.2498ZM58.5342 29.88L62.8855 18.12H62.8874H66.4652L70.8665 29.88H67.4898L66.8658 27.9822H62.4425L61.8111 29.88H58.5342ZM64.6338 21.3951L63.2529 25.5452H66.0646L64.7003 21.3951H64.6338ZM83.3151 18.12H80.1563V24.4025H80.1231L75 18.12H72.1772V29.88H75.336V23.3779H75.3692L80.6437 29.88H83.3151V18.12ZM91.2092 17.9686C92.4868 17.9686 93.5834 18.2179 94.5028 18.7163H94.5009C95.4203 19.2148 96.1255 19.9182 96.6185 20.8246C97.1114 21.7311 97.3569 22.8074 97.3569 24.0166C97.3569 25.2259 97.0985 26.2819 96.5834 27.1828C96.0683 28.0856 95.3501 28.7852 94.4326 29.2837C93.5151 29.7822 92.4738 30.0314 91.2074 30.0314C89.9409 30.0314 88.8517 29.7822 87.9397 29.2837C87.0258 28.7852 86.3243 28.0819 85.8314 27.1754C85.3385 26.2689 85.0929 25.1926 85.0929 23.9834C85.0929 22.7742 85.3477 21.7163 85.8572 20.808C86.3668 19.8997 87.0849 19.2 88.008 18.7071C88.9329 18.2142 90 17.9686 91.2092 17.9686ZM92.7471 26.8043C93.1772 26.6031 93.5114 26.2708 93.7458 25.8056V25.8019C93.9803 25.3385 94.0985 24.7292 94.0985 23.9797C94.0985 23.2302 93.9858 22.6283 93.7625 22.1742C93.5391 21.7219 93.2105 21.3932 92.7803 21.192C92.3483 20.9908 91.824 20.8892 91.2092 20.8892C90.6258 20.8892 90.1182 20.9908 89.688 21.192C89.2578 21.3932 88.9237 21.7237 88.6892 22.1834C88.4548 22.6431 88.3366 23.2745 88.3366 24.0148C88.3366 24.7551 88.4492 25.3532 88.6726 25.8129C88.896 26.2726 89.2265 26.6031 89.664 26.8043C90.0997 27.0056 90.6148 27.1071 91.2092 27.1071C91.8037 27.1071 92.3151 27.0056 92.7471 26.8043ZM110.26 29.88V18.12H107.101V24.4025H107.068L101.945 18.12H99.1218V29.88H102.281V23.3779H102.314L107.588 29.88H110.26Z" fill="black"/>
</svg>
