<svg width="92" height="28" fill="none" xmlns="http://www.w3.org/2000/svg">
    <style>
        #shape { fill: #0F1821; }
        @media (prefers-color-scheme: dark) {
            #shape { fill: #F9FBFC; }
        }
    </style>
    <path id="shape" fill-rule="evenodd" clip-rule="evenodd" d="m24.893 0 14 14-14 14-5.447-5.446L14 28 0 14 14 0l5.446 5.446L24.893 0zM3.258 14l10.74 10.74v.004l3.819-3.818-6.924-6.924 6.924-6.924-3.819-3.819L3.258 14zm21.481 0-5.294-5.295L14.15 14l5.295 5.294L24.739 14zm3.256-.002.002.002v-.003l-.002.001zm-6.922-6.922 6.922 6.922-6.922 6.923 3.818 3.818L35.63 14 24.892 3.257l-3.818 3.818zm23.82 12.177 3.888-10.506h3.198l3.932 10.506h-3.017l-.557-1.695h-3.952l-.564 1.695h-2.928zm5.45-7.58-1.234 3.708h2.512l-1.219-3.708h-.06zm16.69-2.926H64.21v5.613h-.03l-4.577-5.613h-2.522v10.506h2.822v-5.809h.03l4.712 5.81h2.387V8.746zm7.052-.136c1.142 0 2.122.223 2.943.668h-.002a4.605 4.605 0 0 1 1.892 1.884c.44.81.66 1.771.66 2.852 0 1.08-.23 2.024-.691 2.829a4.816 4.816 0 0 1-1.922 1.877c-.82.445-1.75.668-2.881.668-1.132 0-2.105-.223-2.92-.668a4.615 4.615 0 0 1-1.883-1.884c-.44-.81-.66-1.771-.66-2.852 0-1.08.228-2.025.683-2.837a4.69 4.69 0 0 1 1.921-1.877c.827-.44 1.78-.66 2.86-.66zm1.375 7.894c.384-.18.682-.476.892-.892v-.003c.21-.414.315-.958.315-1.628 0-.67-.1-1.207-.3-1.613a1.828 1.828 0 0 0-.878-.878c-.386-.18-.854-.27-1.404-.27-.52 0-.974.09-1.359.27-.384.18-.682.475-.892.886-.21.41-.315.975-.315 1.636 0 .662.1 1.196.3 1.607.2.41.495.706.886.885.39.18.85.27 1.38.27.532 0 .989-.09 1.375-.27zm15.646 2.748V8.747h-2.823v5.613h-.03l-4.576-5.613h-2.522v10.506h2.822v-5.809h.03l4.712 5.81h2.387z" fill="none"/>
</svg>